<?xml version="1.0" encoding="utf-8"?>
<!-- Generator: Adobe Illustrator 23.0.2, SVG Export Plug-In . SVG Version: 6.00 Build 0)  -->
<svg version="1.1" xmlns="http://www.w3.org/2000/svg" xmlns:xlink="http://www.w3.org/1999/xlink" x="0px" y="0px"
	 viewBox="0 0 89.88 85.98" style="enable-background:new 0 0 89.88 85.98;" xml:space="preserve">
<style type="text/css">
	.st0{opacity:0.7;fill:url(#SVGID_1_);}
	.st1{opacity:0.7;fill:url(#SVGID_2_);}
	.st2{fill:#1C3661;}
	.st3{fill:url(#SVGID_5_);}
	.st4{opacity:0.3;fill-rule:evenodd;clip-rule:evenodd;fill:url(#SVGID_6_);}
	.st5{opacity:0.46;}
	.st6{fill:#1D1D1B;}
	.st7{fill:url(#SVGID_7_);}
	.st8{fill:url(#SVGID_8_);}
	.st9{opacity:0.4;fill:#CCCCCC;}
	.st10{fill:url(#SVGID_11_);}
	.st11{opacity:0.3;fill-rule:evenodd;clip-rule:evenodd;fill:url(#SVGID_12_);}
	.st12{fill-rule:evenodd;clip-rule:evenodd;fill:none;stroke:#FFFFFF;stroke-width:4;stroke-miterlimit:10;}
	.st13{fill-rule:evenodd;clip-rule:evenodd;fill:#FFFFFF;}
	.st14{fill-rule:evenodd;clip-rule:evenodd;fill:none;stroke:#FFFFFF;stroke-width:3;stroke-miterlimit:10;}
	.st15{fill-rule:evenodd;clip-rule:evenodd;fill:#FFFFFF;stroke:#FFFFFF;stroke-miterlimit:10;}
	.st16{fill:none;stroke:#FFFFFF;stroke-width:2;stroke-linecap:round;stroke-linejoin:round;stroke-miterlimit:10;}
	.st17{fill:none;stroke:#2E3192;stroke-width:2;stroke-linecap:round;stroke-linejoin:round;stroke-miterlimit:10;}
	.st18{opacity:0.5;fill:#FFFFFF;}
	.st19{opacity:0.17;}
	.st20{fill-rule:evenodd;clip-rule:evenodd;fill:#F5F5F5;}
	.st21{fill-rule:evenodd;clip-rule:evenodd;fill:#1C3661;}
	.st22{fill:#FFFFFF;}
	.st23{fill:none;}
	.st24{clip-path:url(#SVGID_14_);fill:#FFFFFF;}
	.st25{clip-path:url(#SVGID_14_);fill:#1D1D1B;}
	.st26{clip-path:url(#SVGID_16_);fill:#FFFFFF;}
	.st27{clip-path:url(#SVGID_16_);fill:#1D1D1B;}
	.st28{clip-path:url(#SVGID_18_);fill:#FFFFFF;}
	.st29{clip-path:url(#SVGID_18_);fill:#1D1D1B;}
	.st30{clip-path:url(#SVGID_20_);fill:url(#SVGID_21_);}
	.st31{clip-path:url(#SVGID_20_);fill:#FFFFFF;}
	.st32{clip-path:url(#SVGID_23_);fill:url(#SVGID_24_);}
	.st33{clip-path:url(#SVGID_23_);fill:#FFFFFF;}
	.st34{clip-path:url(#SVGID_26_);}
	.st35{clip-path:url(#SVGID_30_);}
	.st36{display:none;}
	.st37{display:inline;opacity:0.5;fill:#B1B1B1;}
	.st38{opacity:0.85;}
	.st39{clip-path:url(#SVGID_34_);}
</style>
<g id="Capa_4">
</g>
<g id="Capa_5">
	<g>
		<path class="st22" d="M37.32,40.38l-0.7-2.27h-4.06l-0.78,2.27h-2.44l3.94-11.02h2.67l3.88,11.02H37.32z M34.58,31.83h-0.02
			l-1.41,4.4h2.81L34.58,31.83z"/>
		<g>
			<defs>
				<rect id="SVGID_15_" x="-38.5" y="-11" width="166.88" height="107.98"/>
			</defs>
			<clipPath id="SVGID_1_">
				<use xlink:href="#SVGID_15_"  style="overflow:visible;"/>
			</clipPath>
			<path style="clip-path:url(#SVGID_1_);fill:#FFFFFF;" d="M46.67,40.36v-2.9c0-0.54-0.13-0.93-0.38-1.16
				c-0.25-0.23-0.71-0.35-1.39-0.35h-2.51v4.41H40.1V29.11h5.71c0.52,0,0.99,0.08,1.42,0.25c0.42,0.16,0.79,0.39,1.09,0.68
				c0.31,0.29,0.54,0.63,0.7,1.03c0.16,0.4,0.25,0.83,0.25,1.29c0,0.61-0.14,1.15-0.43,1.62c-0.29,0.47-0.7,0.8-1.25,0.99
				c0.5,0.16,0.85,0.4,1.06,0.73c0.21,0.33,0.31,0.82,0.31,1.48v3.19H46.67z M42.39,31.06v2.98h2.95c0.63,0,1.08-0.14,1.34-0.42
				c0.26-0.28,0.39-0.63,0.39-1.06c0-0.44-0.13-0.8-0.38-1.08c-0.26-0.28-0.68-0.42-1.26-0.42H42.39z"/>
			<polygon style="clip-path:url(#SVGID_1_);fill:#FFFFFF;" points="52.89,40.36 52.89,31.07 49.5,31.07 49.5,29.12 58.65,29.12 
				58.65,31.07 55.24,31.07 55.24,40.36 			"/>
			<path style="clip-path:url(#SVGID_1_);fill:#FFFFFF;" d="M35.74,47.73c-0.12,0.64-0.32,1.23-0.59,1.75
				c-0.27,0.52-0.61,0.97-1.03,1.34c-0.41,0.37-0.89,0.66-1.43,0.86c-0.54,0.2-1.14,0.31-1.8,0.31c-0.74,0-1.42-0.12-2.06-0.37
				c-0.64-0.25-1.19-0.62-1.66-1.12c-0.46-0.5-0.83-1.11-1.09-1.84c-0.26-0.73-0.4-1.58-0.4-2.56c0-0.95,0.12-1.81,0.37-2.57
				c0.24-0.77,0.59-1.41,1.04-1.94c0.45-0.53,1-0.93,1.65-1.21c0.65-0.28,1.38-0.42,2.18-0.42c0.7,0,1.34,0.1,1.91,0.32
				c0.57,0.21,1.06,0.5,1.48,0.87c0.41,0.37,0.74,0.81,0.98,1.3c0.25,0.5,0.39,1.03,0.45,1.6h-2.36c-0.16-0.64-0.46-1.15-0.91-1.5
				c-0.45-0.36-0.96-0.53-1.53-0.53c-0.98,0-1.7,0.35-2.17,1.06c-0.46,0.71-0.7,1.68-0.7,2.91c0,1.25,0.23,2.23,0.69,2.92
				c0.46,0.7,1.14,1.04,2.06,1.04c0.7,0,1.26-0.19,1.69-0.57c0.42-0.38,0.71-0.92,0.87-1.64H35.74z"/>
			<path style="clip-path:url(#SVGID_1_);fill:#FFFFFF;" d="M41.41,51.98c-1.74,0-3.08-0.51-4.01-1.53c-0.93-1.02-1.4-2.48-1.4-4.39
				c0-0.95,0.12-1.8,0.36-2.56c0.24-0.76,0.59-1.4,1.05-1.92c0.46-0.52,1.03-0.93,1.69-1.2c0.67-0.28,1.44-0.42,2.31-0.42
				c0.86,0,1.63,0.14,2.3,0.42c0.67,0.28,1.24,0.68,1.69,1.21c0.45,0.53,0.8,1.18,1.04,1.94c0.24,0.76,0.35,1.63,0.35,2.59
				c0,1.94-0.46,3.41-1.38,4.39C44.48,51.49,43.15,51.98,41.41,51.98 M41.41,49.96c0.42,0,0.82-0.08,1.19-0.23
				c0.38-0.15,0.7-0.38,0.97-0.69c0.28-0.31,0.5-0.71,0.65-1.19c0.16-0.49,0.24-1.06,0.24-1.73c0-1.33-0.26-2.35-0.78-3.03
				c-0.52-0.69-1.28-1.03-2.27-1.03c-0.99,0-1.76,0.34-2.29,1.03c-0.53,0.69-0.8,1.7-0.8,3.03c0,1.33,0.27,2.31,0.8,2.93
				C39.67,49.66,40.42,49.96,41.41,49.96"/>
			<polygon style="clip-path:url(#SVGID_1_);fill:#FFFFFF;" points="56.14,51.59 56.14,43.88 54.04,51.59 51.7,51.59 49.61,43.91 
				49.61,51.59 47.43,51.59 47.43,40.33 50.88,40.33 52.92,48.59 54.96,40.33 58.35,40.33 58.35,51.59 			"/>
			<path style="clip-path:url(#SVGID_1_);fill:#FFFFFF;" d="M29.2,51.44h0.61l1.65,3.78h-0.7l-0.38-0.91h-1.77l-0.39,0.91h-0.67
				L29.2,51.44z M30.14,53.73l-0.65-1.5l-0.64,1.5H30.14z"/>
			<path style="clip-path:url(#SVGID_1_);fill:#FFFFFF;" d="M33.76,55.28c-0.27,0-0.53-0.05-0.76-0.15c-0.23-0.1-0.43-0.24-0.6-0.41
				c-0.17-0.17-0.31-0.38-0.4-0.61c-0.1-0.24-0.15-0.49-0.15-0.76v-0.01c0-0.27,0.05-0.52,0.14-0.75c0.1-0.23,0.23-0.44,0.4-0.62
				c0.17-0.18,0.38-0.32,0.61-0.42c0.24-0.1,0.5-0.15,0.78-0.15c0.17,0,0.33,0.01,0.47,0.04c0.14,0.03,0.27,0.07,0.39,0.12
				c0.12,0.05,0.23,0.11,0.33,0.19c0.1,0.07,0.2,0.15,0.29,0.23l-0.42,0.49c-0.15-0.14-0.31-0.25-0.48-0.34
				c-0.17-0.09-0.36-0.13-0.57-0.13c-0.18,0-0.34,0.03-0.5,0.1c-0.15,0.07-0.28,0.16-0.39,0.29c-0.11,0.12-0.2,0.26-0.26,0.42
				c-0.06,0.16-0.09,0.33-0.09,0.51v0.01c0,0.18,0.03,0.35,0.09,0.52c0.06,0.16,0.15,0.3,0.26,0.43c0.11,0.12,0.25,0.22,0.39,0.29
				c0.15,0.07,0.32,0.1,0.5,0.1c0.23,0,0.43-0.04,0.59-0.13c0.16-0.09,0.33-0.21,0.49-0.36l0.42,0.43c-0.1,0.1-0.2,0.2-0.3,0.28
				c-0.1,0.08-0.22,0.15-0.34,0.21c-0.12,0.06-0.26,0.1-0.4,0.13C34.1,55.27,33.94,55.28,33.76,55.28"/>
			<path style="clip-path:url(#SVGID_1_);fill:#FFFFFF;" d="M37.44,51.44h0.61l1.65,3.78h-0.7l-0.38-0.91h-1.77l-0.39,0.91h-0.68
				L37.44,51.44z M38.38,53.73l-0.65-1.5l-0.64,1.5H38.38z"/>
			<path style="clip-path:url(#SVGID_1_);fill:#FFFFFF;" d="M40.45,51.47h1.4c0.29,0,0.56,0.05,0.81,0.14
				c0.24,0.1,0.45,0.23,0.63,0.39c0.18,0.17,0.32,0.36,0.41,0.59c0.1,0.23,0.14,0.47,0.14,0.73v0.01c0,0.26-0.05,0.51-0.14,0.74
				c-0.1,0.23-0.23,0.43-0.41,0.59c-0.18,0.17-0.39,0.3-0.63,0.4c-0.24,0.1-0.51,0.15-0.81,0.15h-1.4V51.47z M41.85,54.62
				c0.2,0,0.38-0.03,0.54-0.09c0.16-0.06,0.3-0.15,0.41-0.26c0.11-0.11,0.2-0.25,0.26-0.4c0.06-0.16,0.09-0.32,0.09-0.51v-0.01
				c0-0.18-0.03-0.35-0.09-0.51c-0.06-0.16-0.15-0.29-0.26-0.41c-0.11-0.11-0.25-0.2-0.41-0.27c-0.16-0.06-0.34-0.1-0.54-0.1h-0.74
				v2.56H41.85z"/>
			<polygon style="clip-path:url(#SVGID_1_);fill:#FFFFFF;" points="44.78,51.47 47.56,51.47 47.56,52.06 45.44,52.06 45.44,53.03 
				47.32,53.03 47.32,53.62 45.44,53.62 45.44,54.62 47.58,54.62 47.58,55.22 44.78,55.22 			"/>
			<polygon style="clip-path:url(#SVGID_1_);fill:#FFFFFF;" points="48.54,51.47 49.25,51.47 50.39,53.24 51.53,51.47 52.24,51.47 
				52.24,55.22 51.58,55.22 51.58,52.53 50.39,54.29 50.37,54.29 49.2,52.54 49.2,55.22 48.54,55.22 			"/>
			<rect x="53.39" y="51.47" style="clip-path:url(#SVGID_1_);fill:#FFFFFF;" width="0.65" height="3.75"/>
			<path style="clip-path:url(#SVGID_1_);fill:#FFFFFF;" d="M56.47,51.44h0.61l1.65,3.78h-0.7l-0.38-0.91h-1.77l-0.39,0.91h-0.68
				L56.47,51.44z M57.41,53.73l-0.65-1.5l-0.64,1.5H57.41z"/>
			<path style="clip-path:url(#SVGID_1_);fill:#FFFFFF;" d="M55.01,66.78c-13.06,7.79-29.98,3.52-37.77-9.55l-4.26,2.54
				c9.2,15.42,29.15,20.47,44.58,11.27c15.42-9.2,20.46-29.16,11.27-44.58L64.56,29C72.35,42.07,68.08,58.98,55.01,66.78"/>
			<line style="clip-path:url(#SVGID_1_);fill:#1D1D1B;" x1="76.38" y1="21.79" x2="59.79" y2="31.68"/>
			
				<rect x="58.42" y="26.12" transform="matrix(0.8586 -0.5126 0.5126 0.8586 -4.0788 38.6758)" style="clip-path:url(#SVGID_1_);fill:#FFFFFF;" width="19.32" height="1.23"/>
			<path style="clip-path:url(#SVGID_1_);fill:#FFFFFF;" d="M28.5,12.65c-15.42,9.2-20.46,29.16-11.27,44.57l4.26-2.54
				c-7.79-13.07-3.52-29.98,9.54-37.77c13.07-7.79,29.98-3.52,37.78,9.55l4.26-2.54C63.88,8.5,43.92,3.46,28.5,12.65"/>
			<line style="clip-path:url(#SVGID_1_);fill:#1D1D1B;" x1="25.6" y1="52.4" x2="9.01" y2="62.3"/>
			
				<rect x="7.65" y="56.74" transform="matrix(0.8584 -0.513 0.513 0.8584 -26.971 17.0016)" style="clip-path:url(#SVGID_1_);fill:#FFFFFF;" width="19.32" height="1.23"/>
		</g>
	</g>
</g>
<g id="Capa_3" class="st36">
</g>
<g id="Capa_6">
</g>
</svg>
