<?xml version="1.0" encoding="utf-8"?>
<!-- Generator: Adobe Illustrator 23.0.2, SVG Export Plug-In . SVG Version: 6.00 Build 0)  -->
<svg version="1.1" xmlns="http://www.w3.org/2000/svg" xmlns:xlink="http://www.w3.org/1999/xlink" x="0px" y="0px"
	 viewBox="0 0 27.95 27.95" style="enable-background:new 0 0 27.95 27.95;" xml:space="preserve">
<style type="text/css">
	.st0{opacity:0.7;fill:url(#SVGID_1_);}
	.st1{opacity:0.7;fill:url(#SVGID_2_);}
	.st2{fill:#1C3661;}
	.st3{fill:url(#SVGID_5_);}
	.st4{opacity:0.3;fill-rule:evenodd;clip-rule:evenodd;fill:url(#SVGID_6_);}
	.st5{opacity:0.46;}
	.st6{fill:#1D1D1B;}
	.st7{fill:url(#SVGID_7_);}
	.st8{fill:url(#SVGID_8_);}
	.st9{opacity:0.4;fill:#CCCCCC;}
	.st10{fill:url(#SVGID_11_);}
	.st11{opacity:0.3;fill-rule:evenodd;clip-rule:evenodd;fill:url(#SVGID_12_);}
	.st12{fill:url(#SVGID_15_);}
	.st13{opacity:0.3;fill-rule:evenodd;clip-rule:evenodd;fill:url(#SVGID_16_);}
	.st14{fill-rule:evenodd;clip-rule:evenodd;fill:none;stroke:#FFFFFF;stroke-width:4;stroke-miterlimit:10;}
	.st15{fill-rule:evenodd;clip-rule:evenodd;fill:#FFFFFF;}
	.st16{fill-rule:evenodd;clip-rule:evenodd;fill:none;stroke:#FFFFFF;stroke-width:3;stroke-miterlimit:10;}
	.st17{fill-rule:evenodd;clip-rule:evenodd;fill:#FFFFFF;stroke:#FFFFFF;stroke-miterlimit:10;}
	.st18{fill:none;stroke:#FFFFFF;stroke-width:2;stroke-linecap:round;stroke-linejoin:round;stroke-miterlimit:10;}
	.st19{fill:none;stroke:#2E3192;stroke-width:2;stroke-linecap:round;stroke-linejoin:round;stroke-miterlimit:10;}
	.st20{opacity:0.5;fill:#FFFFFF;}
	.st21{opacity:0.17;}
	.st22{fill-rule:evenodd;clip-rule:evenodd;fill:#F5F5F5;}
	.st23{fill-rule:evenodd;clip-rule:evenodd;fill:#1C3661;}
	.st24{fill:#FFFFFF;}
	.st25{fill:none;}
	.st26{clip-path:url(#SVGID_18_);fill:#FFFFFF;}
	.st27{clip-path:url(#SVGID_18_);fill:#1D1D1B;}
	.st28{clip-path:url(#SVGID_20_);fill:#FFFFFF;}
	.st29{clip-path:url(#SVGID_20_);fill:#1D1D1B;}
	.st30{clip-path:url(#SVGID_22_);fill:#FFFFFF;}
	.st31{clip-path:url(#SVGID_22_);fill:#1D1D1B;}
	.st32{clip-path:url(#SVGID_24_);fill:url(#SVGID_25_);}
	.st33{clip-path:url(#SVGID_24_);fill:#FFFFFF;}
	.st34{clip-path:url(#SVGID_27_);fill:url(#SVGID_28_);}
	.st35{clip-path:url(#SVGID_27_);fill:#FFFFFF;}
	.st36{clip-path:url(#SVGID_30_);}
	.st37{clip-path:url(#SVGID_34_);fill:url(#SVGID_35_);}
	.st38{clip-path:url(#SVGID_34_);fill:#FFFFFF;}
	.st39{clip-path:url(#SVGID_37_);}
	.st40{clip-path:url(#SVGID_41_);}
	.st41{clip-path:url(#SVGID_45_);fill:url(#SVGID_46_);}
	.st42{clip-path:url(#SVGID_45_);fill:#FFFFFF;}
	.st43{clip-path:url(#SVGID_48_);}
	.st44{display:none;}
	.st45{display:inline;opacity:0.5;fill:#B1B1B1;}
	.st46{opacity:0.85;}
	.st47{clip-path:url(#SVGID_52_);}
	.st48{clip-path:url(#SVGID_58_);}
</style>
<g id="Capa_4">
</g>
<g id="Capa_5">
	<path class="st22" d="M0,23.8c0-6.55,0-13.1,0-19.66c0.01-0.03,0.04-0.06,0.04-0.09c0.29-1.66,1.22-2.84,2.7-3.59
		C3.18,0.24,3.68,0.15,4.15,0c6.55,0,13.1,0,19.65,0c0.03,0.02,0.06,0.04,0.09,0.05c1.65,0.28,2.83,1.2,3.58,2.67
		c0.22,0.44,0.32,0.95,0.48,1.43c0,6.55,0,13.11,0,19.66c-0.02,0.03-0.04,0.06-0.05,0.09c-0.29,1.66-1.22,2.84-2.7,3.59
		c-0.44,0.22-0.93,0.31-1.4,0.46c-1.84,0-3.68,0-5.51,0c0.01-0.12,0.03-0.23,0.03-0.35c0-3.29,0-6.57,0-9.85c0-0.11,0-0.23,0-0.37
		c1.57,0,3.11,0,4.65,0c0-1.56,0-3.09,0-4.65c-1.56,0-3.09,0-4.61,0c0-0.75-0.04-1.47,0.01-2.18c0.05-0.61,0.5-0.94,1.1-0.94
		c1.07,0,2.15,0,3.22,0c0.09,0,0.19,0,0.28,0c0-1.57,0-3.09,0-4.63c-0.06,0-0.1-0.01-0.14-0.01c-1.19,0-2.38-0.01-3.58,0.01
		c-0.41,0.01-0.84,0.05-1.23,0.18c-2.28,0.74-3.49,2.42-3.91,4.7c-0.15,0.84-0.09,1.72-0.13,2.58c0,0.09,0,0.19,0,0.31
		c-1.15,0-2.26,0-3.38,0c0,1.55,0,3.08,0,4.64c1.13,0,2.25,0,3.38,0c0,3.54,0,7.05,0,10.56c-3.28,0-6.55,0-9.83,0
		c-0.03-0.02-0.06-0.04-0.09-0.05c-1.65-0.28-2.83-1.2-3.57-2.67C0.25,24.79,0.16,24.28,0,23.8z"/>
</g>
<g id="Capa_3" class="st44">
</g>
<g id="Capa_6">
</g>
</svg>
