<?xml version="1.0" encoding="utf-8"?>
<!-- Generator: Adobe Illustrator 23.0.2, SVG Export Plug-In . SVG Version: 6.00 Build 0)  -->
<svg version="1.1" xmlns="http://www.w3.org/2000/svg" xmlns:xlink="http://www.w3.org/1999/xlink" x="0px" y="0px"
	 viewBox="0 0 64.84 73.75" style="enable-background:new 0 0 64.84 73.75;" xml:space="preserve">
<style type="text/css">
	.st0{opacity:0.7;fill:url(#SVGID_1_);}
	.st1{opacity:0.7;fill:url(#SVGID_2_);}
	.st2{fill:#1C3661;}
	.st3{fill:url(#SVGID_5_);}
	.st4{opacity:0.3;fill-rule:evenodd;clip-rule:evenodd;fill:url(#SVGID_6_);}
	.st5{opacity:0.46;}
	.st6{fill:#1D1D1B;}
	.st7{fill:url(#SVGID_7_);}
	.st8{fill:url(#SVGID_8_);}
	.st9{opacity:0.4;fill:#CCCCCC;}
	.st10{fill:url(#SVGID_11_);}
	.st11{opacity:0.3;fill-rule:evenodd;clip-rule:evenodd;fill:url(#SVGID_12_);}
	.st12{fill:url(#SVGID_15_);}
	.st13{opacity:0.3;fill-rule:evenodd;clip-rule:evenodd;fill:url(#SVGID_16_);}
	.st14{fill-rule:evenodd;clip-rule:evenodd;fill:none;stroke:#FFFFFF;stroke-width:4;stroke-miterlimit:10;}
	.st15{fill-rule:evenodd;clip-rule:evenodd;fill:#FFFFFF;}
	.st16{fill-rule:evenodd;clip-rule:evenodd;fill:none;stroke:#FFFFFF;stroke-width:3;stroke-miterlimit:10;}
	.st17{fill-rule:evenodd;clip-rule:evenodd;fill:#FFFFFF;stroke:#FFFFFF;stroke-miterlimit:10;}
	.st18{fill:none;stroke:#FFFFFF;stroke-width:2;stroke-linecap:round;stroke-linejoin:round;stroke-miterlimit:10;}
	.st19{fill:none;stroke:#2E3192;stroke-width:2;stroke-linecap:round;stroke-linejoin:round;stroke-miterlimit:10;}
	.st20{opacity:0.5;fill:#FFFFFF;}
	.st21{opacity:0.17;}
	.st22{fill-rule:evenodd;clip-rule:evenodd;fill:#F5F5F5;}
	.st23{fill-rule:evenodd;clip-rule:evenodd;fill:#1C3661;}
	.st24{fill:#FFFFFF;}
	.st25{fill:none;}
	.st26{clip-path:url(#SVGID_18_);fill:#FFFFFF;}
	.st27{clip-path:url(#SVGID_18_);fill:#1D1D1B;}
	.st28{clip-path:url(#SVGID_20_);fill:#FFFFFF;}
	.st29{clip-path:url(#SVGID_20_);fill:#1D1D1B;}
	.st30{clip-path:url(#SVGID_22_);fill:#FFFFFF;}
	.st31{clip-path:url(#SVGID_22_);fill:#1D1D1B;}
	.st32{clip-path:url(#SVGID_24_);fill:url(#SVGID_25_);}
	.st33{clip-path:url(#SVGID_24_);fill:#FFFFFF;}
	.st34{clip-path:url(#SVGID_27_);fill:url(#SVGID_28_);}
	.st35{clip-path:url(#SVGID_27_);fill:#FFFFFF;}
	.st36{clip-path:url(#SVGID_30_);}
	.st37{clip-path:url(#SVGID_34_);fill:url(#SVGID_35_);}
	.st38{clip-path:url(#SVGID_34_);fill:#FFFFFF;}
	.st39{clip-path:url(#SVGID_37_);}
	.st40{clip-path:url(#SVGID_41_);}
	.st41{display:none;}
	.st42{display:inline;opacity:0.5;fill:#B1B1B1;}
	.st43{opacity:0.85;}
	.st44{clip-path:url(#SVGID_45_);}
</style>
<g id="Capa_4">
</g>
<g id="Capa_5">
	<g>
		<path class="st17" d="M32.73,0.5c0.95,0.35,1.31,1.04,1.28,2.04c-0.04,1.23,0,2.47-0.01,3.71c-0.01,1.12-0.63,1.81-1.57,1.81
			c-0.94,0-1.56-0.7-1.57-1.81c-0.02-1.24,0.03-2.47-0.01-3.71c-0.04-1,0.32-1.69,1.27-2.04C32.32,0.5,32.52,0.5,32.73,0.5z"/>
		<path class="st17" d="M24.51,64.32c0-1.6,0.01-3.19,0-4.79c0-0.25,0-0.56-0.13-0.73c-0.99-1.27-1.17-2.74-1.03-4.25
			c0.11-1.13-0.3-1.66-1.29-2.23c-6.28-3.59-9.99-9-10.81-16.22c-1.16-10.21,4.96-19.58,14.73-22.76c8.4-2.73,18.05,0.31,23.35,7.36
			c6.76,8.99,5.74,21.1-2.51,28.72c-1.4,1.29-3.13,2.23-4.74,3.28c-0.39,0.25-0.58,0.47-0.57,0.95c0.01,0.97,0.01,1.96-0.1,2.93
			c-0.07,0.57-0.27,1.18-0.59,1.64c-0.4,0.57-0.48,1.15-0.48,1.8c0.02,2.86,0.02,5.71,0.01,8.57c-0.01,2.88-1.72,4.62-4.6,4.63
			c-2.21,0.01-4.43,0.01-6.64,0c-2.83-0.02-4.55-1.75-4.57-4.59C24.5,67.21,24.51,65.77,24.51,64.32z M32.41,57.36
			c1.42,0,2.83,0.02,4.25-0.01c1.05-0.02,1.62-0.59,1.64-1.63c0.02-0.88,0.08-1.76-0.01-2.63c-0.16-1.53,0.47-2.37,1.89-3
			c8.2-3.7,12.39-13.42,9.54-21.94c-3.34-9.98-13.86-15.04-23.74-11.42c-9,3.3-13.94,13.65-10.81,22.71
			c1.74,5.03,5.02,8.68,9.88,10.85c1.06,0.48,1.55,1.17,1.48,2.33c-0.05,0.92-0.01,1.85-0.01,2.78c0.01,1.45,0.51,1.96,1.94,1.97
			C29.78,57.37,31.1,57.37,32.41,57.36z M27.66,65.32c0,0.63-0.01,2.75,0,3.28c0.01,1.08,0.37,1.43,1.44,1.44c2.19,0,4.37,0,6.56,0
			c1.18,0,1.51-0.33,1.51-1.51c0-2.42,0-4.84,0-7.25c0-0.22,0.26-1.9,0.24-2.11c-3.18,0-6.46,0-9.6,0c0,1.03-0.12,3.43-0.12,4.49
			c1.58,0,3.21-0.01,4.74,0c0.35,0,2.05,0.11,2.02,0.84c-0.03,0.73-0.38,0.55-1.13,0.71c-0.37,0.08-0.76,0.1-1.15,0.11
			C30.7,65.33,29.22,65.32,27.66,65.32z"/>
		<path class="st17" d="M10.84,9.22c0.57,0.31,1.02,0.46,1.34,0.76c0.92,0.86,1.8,1.76,2.68,2.67c0.74,0.76,0.79,1.69,0.17,2.34
			c-0.65,0.69-1.6,0.67-2.4-0.1C11.7,14,10.8,13.09,9.9,12.16c-0.5-0.52-0.75-1.19-0.33-1.83C9.86,9.89,10.39,9.6,10.84,9.22z"/>
		<path class="st17" d="M49.18,13.98c0.33-0.56,0.49-1,0.79-1.32c0.86-0.92,1.76-1.81,2.67-2.68c0.75-0.72,1.71-0.75,2.34-0.12
			c0.64,0.63,0.63,1.59-0.09,2.35c-0.91,0.95-1.84,1.87-2.79,2.78c-0.52,0.5-1.2,0.74-1.83,0.3C49.84,14.99,49.56,14.45,49.18,13.98
			z"/>
		<path class="st17" d="M3.84,34.02c-0.54,0-1.08,0.02-1.62,0c-1.01-0.04-1.67-0.62-1.72-1.51c-0.05-0.85,0.59-1.58,1.57-1.63
			c1.18-0.06,2.36-0.06,3.54,0.01c0.97,0.05,1.55,0.72,1.52,1.59c-0.02,0.87-0.65,1.48-1.6,1.54C4.97,34.05,4.41,34.02,3.84,34.02
			C3.84,34.02,3.84,34.02,3.84,34.02z"/>
		<path class="st17" d="M60.97,34.02c-0.56,0-1.13,0.03-1.69-0.01c-0.95-0.06-1.57-0.69-1.58-1.56c-0.01-0.84,0.54-1.51,1.47-1.56
			c1.23-0.07,2.46-0.07,3.69,0c0.91,0.05,1.5,0.75,1.49,1.56c-0.01,0.85-0.65,1.5-1.6,1.56C62.16,34.05,61.56,34.02,60.97,34.02z"/>
	</g>
</g>
<g id="Capa_3" class="st41">
</g>
<g id="Capa_6">
</g>
</svg>
