<?xml version="1.0" encoding="utf-8"?>
<!-- Generator: Adobe Illustrator 23.0.2, SVG Export Plug-In . SVG Version: 6.00 Build 0)  -->
<svg version="1.1" xmlns="http://www.w3.org/2000/svg" xmlns:xlink="http://www.w3.org/1999/xlink" x="0px" y="0px"
	 viewBox="0 0 62.41 82.11" style="enable-background:new 0 0 62.41 82.11;" xml:space="preserve">
<style type="text/css">
	.st0{opacity:0.7;fill:url(#SVGID_1_);}
	.st1{opacity:0.7;fill:url(#SVGID_2_);}
	.st2{fill:#1C3661;}
	.st3{fill:url(#SVGID_5_);}
	.st4{opacity:0.3;fill-rule:evenodd;clip-rule:evenodd;fill:url(#SVGID_6_);}
	.st5{opacity:0.46;}
	.st6{fill:#1D1D1B;}
	.st7{fill:url(#SVGID_7_);}
	.st8{fill:url(#SVGID_8_);}
	.st9{opacity:0.4;fill:#CCCCCC;}
	.st10{fill:url(#SVGID_11_);}
	.st11{opacity:0.3;fill-rule:evenodd;clip-rule:evenodd;fill:url(#SVGID_12_);}
	.st12{fill:url(#SVGID_15_);}
	.st13{opacity:0.3;fill-rule:evenodd;clip-rule:evenodd;fill:url(#SVGID_16_);}
	.st14{fill-rule:evenodd;clip-rule:evenodd;fill:none;stroke:#FFFFFF;stroke-width:4;stroke-miterlimit:10;}
	.st15{fill-rule:evenodd;clip-rule:evenodd;fill:#FFFFFF;}
	.st16{fill-rule:evenodd;clip-rule:evenodd;fill:none;stroke:#FFFFFF;stroke-width:3;stroke-miterlimit:10;}
	.st17{fill-rule:evenodd;clip-rule:evenodd;fill:#FFFFFF;stroke:#FFFFFF;stroke-miterlimit:10;}
	.st18{fill:none;stroke:#FFFFFF;stroke-width:2;stroke-linecap:round;stroke-linejoin:round;stroke-miterlimit:10;}
	.st19{fill:none;stroke:#2E3192;stroke-width:2;stroke-linecap:round;stroke-linejoin:round;stroke-miterlimit:10;}
	.st20{opacity:0.5;fill:#FFFFFF;}
	.st21{opacity:0.17;}
	.st22{fill-rule:evenodd;clip-rule:evenodd;fill:#F5F5F5;}
	.st23{fill-rule:evenodd;clip-rule:evenodd;fill:#1C3661;}
	.st24{fill:#FFFFFF;}
	.st25{fill:none;}
	.st26{clip-path:url(#SVGID_18_);fill:#FFFFFF;}
	.st27{clip-path:url(#SVGID_18_);fill:#1D1D1B;}
	.st28{clip-path:url(#SVGID_20_);fill:#FFFFFF;}
	.st29{clip-path:url(#SVGID_20_);fill:#1D1D1B;}
	.st30{clip-path:url(#SVGID_22_);fill:#FFFFFF;}
	.st31{clip-path:url(#SVGID_22_);fill:#1D1D1B;}
	.st32{clip-path:url(#SVGID_24_);fill:url(#SVGID_25_);}
	.st33{clip-path:url(#SVGID_24_);fill:#FFFFFF;}
	.st34{clip-path:url(#SVGID_27_);fill:url(#SVGID_28_);}
	.st35{clip-path:url(#SVGID_27_);fill:#FFFFFF;}
	.st36{clip-path:url(#SVGID_30_);}
	.st37{clip-path:url(#SVGID_34_);fill:url(#SVGID_35_);}
	.st38{clip-path:url(#SVGID_34_);fill:#FFFFFF;}
	.st39{clip-path:url(#SVGID_37_);}
	.st40{clip-path:url(#SVGID_41_);}
	.st41{display:none;}
	.st42{display:inline;opacity:0.5;fill:#B1B1B1;}
	.st43{opacity:0.85;}
	.st44{clip-path:url(#SVGID_45_);}
</style>
<g id="Capa_4">
</g>
<g id="Capa_5">
	<g>
		<path class="st16" d="M36.46,80.61c-3.52,0-7.03,0-10.55,0c-2.49-0.33-5-0.57-7.47-1c-4.89-0.85-9.67-2.07-13.64-5.29
			c-2.05-1.66-3.29-3.76-3.29-6.51C1.53,53.49,1.43,39.16,1.6,24.84c0.03-2.72,0.67-5.6,1.74-8.1c2.7-6.3,7.82-10.25,14.09-12.57
			c3.36-1.24,6.96-1.8,10.46-2.67c2.31,0,4.61,0,6.92,0c0.31,0.1,0.6,0.25,0.91,0.29c4.02,0.41,7.88,1.45,11.48,3.29
			c8.79,4.48,13.85,11.23,13.7,21.55c-0.2,13.34-0.13,26.68,0,40.02c0.04,4.05-1.65,6.79-4.9,8.85c-3.16,1.99-6.65,3.13-10.28,3.79
			C42.66,79.82,39.55,80.17,36.46,80.61z M8.26,37.07c-0.07,0.27-0.14,0.42-0.14,0.56c-0.01,9.94-0.03,19.89,0.04,29.83
			c0,0.67,0.56,1.63,1.14,1.96c1.81,1.01,3.67,2.04,5.64,2.59c9.1,2.53,18.34,2.48,27.6,1.15c3.49-0.5,6.88-1.41,9.94-3.27
			c1.21-0.73,1.82-1.63,1.8-3.19c-0.08-9.29-0.04-18.57-0.04-27.85c0-0.57-0.05-1.14-0.08-1.74c-3.21,1.07-3.21,1.07-3.21,4.12
			c0,2.69,0.05,5.38-0.02,8.07c-0.07,2.83-2.24,4.93-4.94,4.91c-2.71-0.01-4.79-2.11-4.92-4.96c-0.01-0.33-0.01-0.66-0.01-0.99
			c-0.03-2.41-1.28-3.91-3.27-3.92c-2-0.01-3.31,1.49-3.31,3.88c-0.02,4.01,0.01,8.02-0.01,12.03c-0.01,2.37-1.34,3.88-3.34,3.85
			c-1.94-0.03-3.22-1.5-3.24-3.79c-0.02-2.8,0-5.6-0.01-8.4c0-2.71-1.17-4.24-3.25-4.27c-2.09-0.03-3.33,1.52-3.34,4.19
			c-0.01,1.37,0.04,2.75-0.02,4.12c-0.09,2.12-1.13,3.66-3.08,4.48c-3.3,1.38-6.74-1.04-6.78-4.8c-0.05-5.33,0-10.66-0.04-15.99
			c0-0.52-0.19-1.26-0.55-1.51C10.08,37.66,9.16,37.43,8.26,37.07z M57.33,22.72c0,0.02,0.02-0.14,0-0.29
			c-0.78-5.55-3.87-9.66-8.43-12.58c-9.01-5.77-18.73-6.4-28.75-3.22C14.37,8.47,9.6,11.78,6.68,17.29
			c-0.93,1.75-1.65,3.6-1.61,5.42C22.55,16.28,39.84,16.28,57.33,22.72z M31.9,24.19c-5.48,0.59-10.56,1.05-15.61,1.75
			c-1.75,0.24-3.5,0.93-5.09,1.73c-1.59,0.8-1.54,2.14,0.07,2.97c1.3,0.67,2.73,1.19,4.16,1.48c10.34,2.14,20.72,2.13,31.08,0.24
			c1.8-0.33,3.6-0.98,5.26-1.78c1.54-0.74,1.54-2.03,0.06-2.88c-1.17-0.67-2.49-1.27-3.8-1.46C42.56,25.45,37.06,24.83,31.9,24.19z"
			/>
	</g>
</g>
<g id="Capa_3" class="st41">
</g>
<g id="Capa_6">
</g>
</svg>
