<?xml version="1.0" encoding="utf-8"?>
<!-- Generator: Adobe Illustrator 23.0.2, SVG Export Plug-In . SVG Version: 6.00 Build 0)  -->
<svg version="1.1" xmlns="http://www.w3.org/2000/svg" xmlns:xlink="http://www.w3.org/1999/xlink" x="0px" y="0px"
	 viewBox="0 0 73.39 73.58" style="enable-background:new 0 0 73.39 73.58;" xml:space="preserve">
<style type="text/css">
	.st0{opacity:0.7;fill:url(#SVGID_1_);}
	.st1{opacity:0.7;fill:url(#SVGID_2_);}
	.st2{fill:#1C3661;}
	.st3{fill:url(#SVGID_5_);}
	.st4{opacity:0.3;fill-rule:evenodd;clip-rule:evenodd;fill:url(#SVGID_6_);}
	.st5{opacity:0.46;}
	.st6{fill:#1D1D1B;}
	.st7{fill:url(#SVGID_7_);}
	.st8{fill:url(#SVGID_8_);}
	.st9{opacity:0.4;fill:#CCCCCC;}
	.st10{fill:url(#SVGID_11_);}
	.st11{opacity:0.3;fill-rule:evenodd;clip-rule:evenodd;fill:url(#SVGID_12_);}
	.st12{fill:url(#SVGID_15_);}
	.st13{opacity:0.3;fill-rule:evenodd;clip-rule:evenodd;fill:url(#SVGID_16_);}
	.st14{fill-rule:evenodd;clip-rule:evenodd;fill:none;stroke:#FFFFFF;stroke-width:4;stroke-miterlimit:10;}
	.st15{fill-rule:evenodd;clip-rule:evenodd;fill:#FFFFFF;}
	.st16{fill-rule:evenodd;clip-rule:evenodd;fill:none;stroke:#FFFFFF;stroke-width:3;stroke-miterlimit:10;}
	.st17{fill-rule:evenodd;clip-rule:evenodd;fill:#FFFFFF;stroke:#FFFFFF;stroke-miterlimit:10;}
	.st18{fill:none;stroke:#FFFFFF;stroke-width:2;stroke-linecap:round;stroke-linejoin:round;stroke-miterlimit:10;}
	.st19{fill:none;stroke:#2E3192;stroke-width:2;stroke-linecap:round;stroke-linejoin:round;stroke-miterlimit:10;}
	.st20{opacity:0.5;fill:#FFFFFF;}
	.st21{opacity:0.17;}
	.st22{fill-rule:evenodd;clip-rule:evenodd;fill:#F5F5F5;}
	.st23{fill-rule:evenodd;clip-rule:evenodd;fill:#1C3661;}
	.st24{fill:#FFFFFF;}
	.st25{fill:none;}
	.st26{clip-path:url(#SVGID_18_);fill:#FFFFFF;}
	.st27{clip-path:url(#SVGID_18_);fill:#1D1D1B;}
	.st28{clip-path:url(#SVGID_20_);fill:#FFFFFF;}
	.st29{clip-path:url(#SVGID_20_);fill:#1D1D1B;}
	.st30{clip-path:url(#SVGID_22_);fill:#FFFFFF;}
	.st31{clip-path:url(#SVGID_22_);fill:#1D1D1B;}
	.st32{clip-path:url(#SVGID_24_);fill:url(#SVGID_25_);}
	.st33{clip-path:url(#SVGID_24_);fill:#FFFFFF;}
	.st34{clip-path:url(#SVGID_27_);fill:url(#SVGID_28_);}
	.st35{clip-path:url(#SVGID_27_);fill:#FFFFFF;}
	.st36{clip-path:url(#SVGID_30_);}
	.st37{clip-path:url(#SVGID_34_);fill:url(#SVGID_35_);}
	.st38{clip-path:url(#SVGID_34_);fill:#FFFFFF;}
	.st39{clip-path:url(#SVGID_37_);}
	.st40{clip-path:url(#SVGID_41_);}
	.st41{display:none;}
	.st42{display:inline;opacity:0.5;fill:#B1B1B1;}
	.st43{opacity:0.85;}
	.st44{clip-path:url(#SVGID_45_);}
</style>
<g id="Capa_4">
</g>
<g id="Capa_5">
	<g>
		<path class="st14" d="M2,36.79C2.26,56.4,17.86,71.91,37,71.58c19.29-0.34,34.67-16.01,34.38-35.03C71.08,16.79,55.64,1.8,35.8,2
			C17.19,2.19,1.76,18.07,2,36.79z"/>
		<path class="st15" d="M39.32,54.96c0,1.34,0.39,2.7-0.11,3.54c-0.56,0.95-1.88,1.86-2.94,1.95c-0.74,0.06-2.33-1.36-2.28-2.01
			c0.26-3.04-1.11-4.09-3.89-4.2c-0.97-0.04-1.95-0.5-2.89-0.85c-1.78-0.67-2.57-1.62-1.68-3.74c0.82-1.95,1.76-2.43,3.75-1.87
			c2.4,0.68,4.96,1.61,7.31,1.31c1.73-0.21,4.06-1.93,4.6-3.5c0.43-1.23-1.16-3.57-2.43-4.85c-1.16-1.17-3.1-1.58-4.69-2.32
			c-4.32-2.03-8.49-4.16-8.54-9.91c-0.05-5.67,3.55-8.27,8.37-9.98c0.05-0.75,0.18-1.5,0.14-2.24c-0.1-2.06,0.49-3.49,2.86-3.54
			c2.28-0.04,2.41,1.42,2.71,3.22c0.18,1.06,1.41,2.2,2.46,2.79c1.48,0.83,3.22,1.19,4.8,1.73c-0.95,5.07-1.09,5.15-5.51,3.89
			c-4.29-1.23-8.05-0.43-8.74,2.09c-1.22,4.47,2.68,5.02,5.29,6.5c2.4,1.36,5.15,2.3,7.18,4.07C51.45,42.63,48.73,51.25,39.32,54.96
			z"/>
	</g>
</g>
<g id="Capa_3" class="st41">
</g>
<g id="Capa_6">
</g>
</svg>
