<?xml version="1.0" encoding="utf-8"?>
<!-- Generator: Adobe Illustrator 23.0.2, SVG Export Plug-In . SVG Version: 6.00 Build 0)  -->
<svg version="1.1" xmlns="http://www.w3.org/2000/svg" xmlns:xlink="http://www.w3.org/1999/xlink" x="0px" y="0px"
	 viewBox="0 0 102.12 74.05" style="enable-background:new 0 0 102.12 74.05;" xml:space="preserve">
<style type="text/css">
	.st0{opacity:0.7;fill:url(#SVGID_1_);}
	.st1{opacity:0.7;fill:url(#SVGID_2_);}
	.st2{fill:#1C3661;}
	.st3{fill:url(#SVGID_5_);}
	.st4{opacity:0.3;fill-rule:evenodd;clip-rule:evenodd;fill:url(#SVGID_6_);}
	.st5{opacity:0.46;}
	.st6{fill:#1D1D1B;}
	.st7{fill:url(#SVGID_7_);}
	.st8{fill:url(#SVGID_8_);}
	.st9{opacity:0.4;fill:#CCCCCC;}
	.st10{fill:url(#SVGID_11_);}
	.st11{opacity:0.3;fill-rule:evenodd;clip-rule:evenodd;fill:url(#SVGID_12_);}
	.st12{fill:url(#SVGID_15_);}
	.st13{opacity:0.3;fill-rule:evenodd;clip-rule:evenodd;fill:url(#SVGID_16_);}
	.st14{fill-rule:evenodd;clip-rule:evenodd;fill:none;stroke:#FFFFFF;stroke-width:4;stroke-miterlimit:10;}
	.st15{fill-rule:evenodd;clip-rule:evenodd;fill:#FFFFFF;}
	.st16{fill-rule:evenodd;clip-rule:evenodd;fill:none;stroke:#FFFFFF;stroke-width:3;stroke-miterlimit:10;}
	.st17{fill-rule:evenodd;clip-rule:evenodd;fill:#FFFFFF;stroke:#FFFFFF;stroke-miterlimit:10;}
	.st18{fill:none;stroke:#FFFFFF;stroke-width:2;stroke-linecap:round;stroke-linejoin:round;stroke-miterlimit:10;}
	.st19{fill:none;stroke:#2E3192;stroke-width:2;stroke-linecap:round;stroke-linejoin:round;stroke-miterlimit:10;}
	.st20{opacity:0.5;fill:#FFFFFF;}
	.st21{opacity:0.17;}
	.st22{fill-rule:evenodd;clip-rule:evenodd;fill:#F5F5F5;}
	.st23{fill-rule:evenodd;clip-rule:evenodd;fill:#1C3661;}
	.st24{fill:#FFFFFF;}
	.st25{fill:none;}
	.st26{clip-path:url(#SVGID_18_);fill:#FFFFFF;}
	.st27{clip-path:url(#SVGID_18_);fill:#1D1D1B;}
	.st28{clip-path:url(#SVGID_20_);fill:#FFFFFF;}
	.st29{clip-path:url(#SVGID_20_);fill:#1D1D1B;}
	.st30{clip-path:url(#SVGID_22_);fill:#FFFFFF;}
	.st31{clip-path:url(#SVGID_22_);fill:#1D1D1B;}
	.st32{clip-path:url(#SVGID_24_);fill:url(#SVGID_25_);}
	.st33{clip-path:url(#SVGID_24_);fill:#FFFFFF;}
	.st34{clip-path:url(#SVGID_27_);fill:url(#SVGID_28_);}
	.st35{clip-path:url(#SVGID_27_);fill:#FFFFFF;}
	.st36{clip-path:url(#SVGID_30_);}
	.st37{clip-path:url(#SVGID_34_);fill:url(#SVGID_35_);}
	.st38{clip-path:url(#SVGID_34_);fill:#FFFFFF;}
	.st39{clip-path:url(#SVGID_37_);}
	.st40{clip-path:url(#SVGID_41_);}
	.st41{display:none;}
	.st42{display:inline;opacity:0.5;fill:#B1B1B1;}
	.st43{opacity:0.85;}
	.st44{clip-path:url(#SVGID_45_);}
</style>
<g id="Capa_4">
</g>
<g id="Capa_5">
	<g>
		<g>
			<path class="st14" d="M29.51,33.98c3.09,0,6.18-0.11,9.26,0.02c8.95,0.38,16.8,7.61,18,16.5c0.15,1.12,0.23,2.26,0.23,3.39
				c0.03,4.1,0,8.2,0.02,12.29c0,0.59-0.14,0.91-0.74,1.14c-6.02,2.32-12.27,3.68-18.68,4.32c-5.97,0.6-11.93,0.54-17.88-0.18
				c-5.88-0.7-11.6-2.03-17.12-4.21C2.16,67.08,2,66.88,2,66.41c0.05-4.94-0.09-9.88,0.15-14.81c0.23-4.54,2.19-8.47,5.37-11.73
				c3.87-3.96,8.61-5.91,14.13-5.95c2.62-0.02,5.23,0,7.85,0C29.51,33.94,29.51,33.96,29.51,33.98z"/>
			<path class="st14" d="M29.49,2c8.07-0.02,14.54,6.41,14.8,14.23c0.29,8.42-6.32,15.31-14.8,15.37
				c-8.14,0.05-14.79-6.68-14.78-14.89C14.72,8.61,21.36,2.01,29.49,2z"/>
		</g>
		<g>
			<path class="st14" d="M72.6,33.98c3.09,0,6.18-0.11,9.26,0.02c8.95,0.38,16.8,7.61,18,16.5c0.15,1.12,0.23,2.26,0.23,3.39
				c0.03,4.1,0,8.2,0.02,12.29c0,0.59-0.14,0.91-0.74,1.14c-6.03,2.32-12.27,3.68-18.68,4.32c-5.97,0.6-11.93,0.54-17.88-0.18
				c-5.88-0.7-11.6-2.03-17.12-4.21c-0.44-0.17-0.61-0.38-0.6-0.85c0.04-4.94-0.09-9.88,0.15-14.81c0.23-4.54,2.19-8.47,5.38-11.73
				c3.86-3.96,8.61-5.91,14.13-5.95c2.62-0.02,5.23,0,7.85,0C72.6,33.94,72.6,33.96,72.6,33.98z"/>
			<path class="st14" d="M72.58,2c8.07-0.02,14.54,6.41,14.8,14.23c0.29,8.42-6.32,15.31-14.8,15.37
				c-8.14,0.05-14.79-6.68-14.78-14.89C57.82,8.61,64.45,2.01,72.58,2z"/>
		</g>
	</g>
</g>
<g id="Capa_3" class="st41">
</g>
<g id="Capa_6">
</g>
</svg>
