<?xml version="1.0" encoding="utf-8"?>
<!-- Generator: Adobe Illustrator 23.0.2, SVG Export Plug-In . SVG Version: 6.00 Build 0)  -->
<svg version="1.1" xmlns="http://www.w3.org/2000/svg" xmlns:xlink="http://www.w3.org/1999/xlink" x="0px" y="0px"
	 viewBox="0 0 291.89 89.45" style="enable-background:new 0 0 291.89 89.45;" xml:space="preserve">
<style type="text/css">
	.st0{opacity:0.7;fill:url(#SVGID_1_);}
	.st1{opacity:0.7;fill:url(#SVGID_2_);}
	.st2{fill:#1C3661;}
	.st3{fill:url(#SVGID_5_);}
	.st4{opacity:0.3;fill-rule:evenodd;clip-rule:evenodd;fill:url(#SVGID_6_);}
	.st5{opacity:0.46;}
	.st6{fill:#1D1D1B;}
	.st7{fill:url(#SVGID_7_);}
	.st8{fill:url(#SVGID_8_);}
	.st9{opacity:0.4;fill:#CCCCCC;}
	.st10{fill:url(#SVGID_11_);}
	.st11{opacity:0.3;fill-rule:evenodd;clip-rule:evenodd;fill:url(#SVGID_12_);}
	.st12{fill-rule:evenodd;clip-rule:evenodd;fill:none;stroke:#FFFFFF;stroke-width:4;stroke-miterlimit:10;}
	.st13{fill-rule:evenodd;clip-rule:evenodd;fill:#FFFFFF;}
	.st14{fill-rule:evenodd;clip-rule:evenodd;fill:none;stroke:#FFFFFF;stroke-width:3;stroke-miterlimit:10;}
	.st15{fill-rule:evenodd;clip-rule:evenodd;fill:#FFFFFF;stroke:#FFFFFF;stroke-miterlimit:10;}
	.st16{fill:none;stroke:#FFFFFF;stroke-width:2;stroke-linecap:round;stroke-linejoin:round;stroke-miterlimit:10;}
	.st17{fill:none;stroke:#2E3192;stroke-width:2;stroke-linecap:round;stroke-linejoin:round;stroke-miterlimit:10;}
	.st18{opacity:0.5;fill:#FFFFFF;}
	.st19{opacity:0.17;}
	.st20{fill-rule:evenodd;clip-rule:evenodd;fill:#F5F5F5;}
	.st21{fill-rule:evenodd;clip-rule:evenodd;fill:#1C3661;}
	.st22{fill:#FFFFFF;}
	.st23{fill:none;}
	.st24{clip-path:url(#SVGID_14_);fill:#FFFFFF;}
	.st25{clip-path:url(#SVGID_14_);fill:#1D1D1B;}
	.st26{clip-path:url(#SVGID_16_);fill:#FFFFFF;}
	.st27{clip-path:url(#SVGID_16_);fill:#1D1D1B;}
	.st28{clip-path:url(#SVGID_18_);fill:url(#SVGID_19_);}
	.st29{clip-path:url(#SVGID_18_);fill:#FFFFFF;}
	.st30{clip-path:url(#SVGID_21_);fill:url(#SVGID_22_);}
	.st31{clip-path:url(#SVGID_21_);fill:#FFFFFF;}
	.st32{clip-path:url(#SVGID_24_);}
	.st33{clip-path:url(#SVGID_28_);}
	.st34{display:none;}
	.st35{display:inline;opacity:0.5;fill:#B1B1B1;}
	.st36{opacity:0.85;}
	.st37{clip-path:url(#SVGID_32_);}
</style>
<g id="Capa_4">
</g>
<g id="Capa_5">
	<g>
		<path class="st22" d="M111.77,43.56c0,3.26-1.96,5.77-6.13,5.77c-3.92,0-5.99-2.31-5.99-5.82V33.38h1.98v10.2
			c0,2.56,1.37,4.03,4.12,4.03c2.84,0,4.05-1.68,4.05-4.05V33.38h1.96V43.56z"/>
		<path class="st22" d="M125.81,49.11l-8.42-13.06h-0.09c0.07,1.04,0.18,2.67,0.18,4.27v8.79h-1.83V33.38h2.29l8.4,13.02h0.09
			c-0.04-0.7-0.16-2.71-0.16-4.14v-8.88h1.85v15.73H125.81z"/>
		<polygon class="st22" points="130.9,49.11 131.56,47.35 132.75,47.35 132.75,35.12 130.9,35.12 130.9,33.38 136.59,33.38 
			135.93,35.12 134.74,35.12 134.74,47.35 136.59,47.35 136.59,49.11 		"/>
		<path class="st22" d="M145.81,49.11h-1.98l-5.62-15.73h2.07l3.54,10.09c0.46,1.3,0.77,2.4,0.99,3.44c0.2-1.04,0.53-2.16,0.99-3.48
			l3.52-10.05h2.09L145.81,49.11z"/>
		<polygon class="st22" points="153.67,49.11 153.67,33.38 162.47,33.38 162.47,35.12 155.66,35.12 155.66,40.04 161.56,40.04 
			161.56,41.75 155.66,41.75 155.66,47.37 162.95,47.37 162.29,49.11 		"/>
		<path class="st22" d="M175.66,37.86c0,2.51-1.56,3.66-3.15,4.21l4.32,7.05h-2.31l-3.81-6.5h-3.13v6.5h-1.99V33.38h4.34
			C173.83,33.38,175.66,34.86,175.66,37.86 M167.57,35.1v5.84h2.36c2.56,0,3.68-1.01,3.68-3c0-2.05-1.21-2.84-3.79-2.84H167.57z"/>
		<path class="st22" d="M182.99,49.33c-1.76,0-3.33-0.27-4.32-0.75l0.61-1.63c0.69,0.31,2.12,0.66,3.79,0.66
			c2.33,0,3.55-0.97,3.55-2.53c0-1.54-0.86-2.2-3.7-3.24c-2.69-0.97-4.05-2.23-4.05-4.67c0-2.49,2.05-4.01,5.02-4.01
			c1.72,0,3.15,0.35,4.34,0.88l-0.64,1.7c-1.1-0.46-2.38-0.84-3.75-0.84c-1.96,0-2.97,0.93-2.97,2.29c0,1.59,0.88,2.23,3.44,3.17
			c2.78,1.04,4.3,2.07,4.3,4.54C188.61,47.7,186.42,49.33,182.99,49.33"/>
		<polygon class="st22" points="190.54,49.11 191.2,47.35 192.39,47.35 192.39,35.12 190.54,35.12 190.54,33.38 196.22,33.38 
			195.56,35.12 194.37,35.12 194.37,47.35 196.22,47.35 196.22,49.11 		"/>
		<path class="st22" d="M203.37,49.11h-4.38V33.38h4.85c4.74,0,7.76,2.67,7.76,7.71C211.59,46.4,208.55,49.11,203.37,49.11
			 M203.55,35.08h-2.58v12.34h2.14c4.25,0,6.39-2.12,6.39-6.26C209.5,36.97,207.34,35.08,203.55,35.08"/>
		<path class="st22" d="M222.46,44.24h-6.24l-1.87,4.87h-2.01l6.15-15.8h1.78l6.13,15.8h-2.05L222.46,44.24z M220.1,37.72
			c-0.13-0.35-0.59-1.81-0.75-2.36c-0.22,0.9-0.51,1.85-0.68,2.36l-1.78,4.76h4.98L220.1,37.72z"/>
		<path class="st22" d="M233.04,49.11h-4.38V33.38h4.84c4.74,0,7.76,2.67,7.76,7.71C241.26,46.4,238.22,49.11,233.04,49.11
			 M233.22,35.08h-2.58v12.34h2.14c4.25,0,6.39-2.12,6.39-6.26C239.17,36.97,237.01,35.08,233.22,35.08"/>
		<path class="st22" d="M254.85,49.11h-4.38V33.38h4.85c4.74,0,7.76,2.67,7.76,7.71C263.07,46.4,260.03,49.11,254.85,49.11
			 M255.03,35.08h-2.58v12.34h2.14c4.25,0,6.39-2.12,6.39-6.26C260.98,36.97,258.82,35.08,255.03,35.08"/>
		<polygon class="st22" points="266.26,49.11 266.26,33.38 275.06,33.38 275.06,35.12 268.25,35.12 268.25,40.04 274.15,40.04 
			274.15,41.75 268.25,41.75 268.25,47.37 275.54,47.37 274.88,49.11 		"/>
		<path class="st22" d="M101.41,60.93h-0.09c0.1,1.05,0.15,2.46,0.15,4.22v9.47h-1.82V59.01h2.91l4.82,12.8h0.09l4.9-12.8h2.89
			v15.62h-1.95v-9.6c0-1.26,0.05-2.61,0.16-4.07h-0.09l-5.21,13.68h-1.62L101.41,60.93z"/>
		<path class="st22" d="M132.11,71.04c-0.55,1.21-1.37,2.15-2.44,2.81c-1.07,0.67-2.38,1-3.93,1c-2.38,0-4.17-0.72-5.39-2.17
			c-1.22-1.44-1.83-3.41-1.83-5.91c0-2.48,0.61-4.44,1.84-5.87c1.22-1.43,3.03-2.14,5.4-2.14c1.53,0,2.84,0.33,3.91,0.98
			c1.08,0.66,1.89,1.59,2.44,2.79c0.55,1.2,0.82,2.62,0.82,4.26C132.95,68.42,132.67,69.83,132.11,71.04 M121.89,71.49
			c0.85,1.1,2.14,1.65,3.86,1.65c1.72,0,3.01-0.55,3.85-1.65c0.84-1.1,1.27-2.67,1.27-4.69c0-2.03-0.42-3.59-1.25-4.67
			c-0.84-1.09-2.12-1.63-3.84-1.63c-1.74,0-3.03,0.55-3.88,1.64c-0.85,1.1-1.28,2.65-1.28,4.66
			C120.61,68.83,121.03,70.39,121.89,71.49"/>
		<path class="st22" d="M146.3,74.63l-8.36-12.97h-0.09c0.12,1.82,0.17,3.24,0.17,4.24v8.73h-1.82V59.01h2.27l8.34,12.93h0.09
			c-0.1-1.63-0.15-3-0.15-4.11v-8.81h1.84v15.62H146.3z"/>
		<polygon class="st22" points="155.83,74.63 155.83,60.74 150.95,60.74 151.6,59.01 162.65,59.01 162.65,60.74 157.8,60.74 
			157.8,74.63 		"/>
		<polygon class="st22" points="165.01,74.63 165.01,59.01 173.74,59.01 173.74,60.74 166.98,60.74 166.98,65.62 172.84,65.62 
			172.84,67.32 166.98,67.32 166.98,72.9 174.22,72.9 173.56,74.63 		"/>
		<path class="st22" d="M178.61,60.93h-0.09c0.1,1.05,0.15,2.46,0.15,4.22v9.47h-1.82V59.01h2.91l4.81,12.8h0.09l4.9-12.8h2.89
			v15.62h-1.95v-9.6c0-1.26,0.05-2.61,0.16-4.07h-0.09l-5.21,13.68h-1.62L178.61,60.93z"/>
		<path class="st22" d="M209.32,71.04c-0.55,1.21-1.37,2.15-2.44,2.81c-1.07,0.67-2.38,1-3.93,1c-2.38,0-4.17-0.72-5.39-2.17
			c-1.22-1.44-1.83-3.41-1.83-5.91c0-2.48,0.61-4.44,1.84-5.87c1.23-1.43,3.03-2.14,5.4-2.14c1.53,0,2.84,0.33,3.92,0.98
			c1.08,0.66,1.89,1.59,2.44,2.79c0.55,1.2,0.82,2.62,0.82,4.26C210.15,68.42,209.87,69.83,209.32,71.04 M199.09,71.49
			c0.85,1.1,2.14,1.65,3.86,1.65c1.72,0,3-0.55,3.85-1.65c0.84-1.1,1.27-2.67,1.27-4.69c0-2.03-0.42-3.59-1.26-4.67
			c-0.84-1.09-2.12-1.63-3.84-1.63c-1.74,0-3.03,0.55-3.88,1.64c-0.86,1.1-1.28,2.65-1.28,4.66
			C197.81,68.83,198.24,70.39,199.09,71.49"/>
		<path class="st22" d="M222.01,60.11c0.93,0.74,1.4,1.85,1.4,3.34c0,2.06-1.04,3.45-3.13,4.18l4.29,7h-2.3l-3.78-6.45h-3.11v6.45
			h-1.97V59.01h4.31C219.65,59.01,221.08,59.38,222.01,60.11 M215.39,60.72v5.8h2.34c1.25,0,2.18-0.25,2.77-0.74
			c0.59-0.5,0.89-1.24,0.89-2.23c0-1.01-0.3-1.73-0.91-2.17c-0.61-0.44-1.56-0.66-2.85-0.66H215.39z"/>
		<polygon class="st22" points="226.98,74.63 226.98,59.01 235.71,59.01 235.71,60.74 228.95,60.74 228.95,65.62 234.81,65.62 
			234.81,67.32 228.95,67.32 228.95,72.9 236.19,72.9 235.53,74.63 		"/>
		<polygon class="st22" points="238.83,59.01 240.8,59.01 240.8,72.88 248,72.88 247.34,74.63 238.83,74.63 		"/>
		<path class="st22" d="M262.7,71.04c-0.55,1.21-1.37,2.15-2.44,2.81c-1.07,0.67-2.38,1-3.93,1c-2.38,0-4.18-0.72-5.39-2.17
			c-1.22-1.44-1.83-3.41-1.83-5.91c0-2.48,0.61-4.44,1.84-5.87c1.22-1.43,3.03-2.14,5.4-2.14c1.53,0,2.84,0.33,3.91,0.98
			c1.08,0.66,1.89,1.59,2.44,2.79c0.55,1.2,0.82,2.62,0.82,4.26C263.53,68.42,263.26,69.83,262.7,71.04 M252.47,71.49
			c0.85,1.1,2.14,1.65,3.86,1.65c1.72,0,3-0.55,3.85-1.65c0.85-1.1,1.27-2.67,1.27-4.69c0-2.03-0.42-3.59-1.26-4.67
			c-0.84-1.09-2.12-1.63-3.84-1.63c-1.74,0-3.03,0.55-3.88,1.64c-0.85,1.1-1.28,2.65-1.28,4.66
			C251.19,68.83,251.62,70.39,252.47,71.49"/>
		<path class="st22" d="M274.03,73.69c-1,0.77-2.36,1.16-4.08,1.16c-0.87,0-1.68-0.07-2.43-0.2c-0.74-0.13-1.36-0.31-1.86-0.55
			l0.61-1.62c0.4,0.17,0.93,0.33,1.6,0.46c0.67,0.13,1.39,0.2,2.17,0.2c1.14,0,2.01-0.22,2.61-0.67c0.61-0.44,0.91-1.06,0.91-1.85
			c0-0.51-0.11-0.94-0.33-1.29c-0.22-0.35-0.59-0.67-1.11-0.96c-0.52-0.29-1.26-0.61-2.24-0.96c-1.38-0.5-2.4-1.1-3.05-1.8
			c-0.65-0.71-0.97-1.65-0.97-2.83c0-1.23,0.46-2.2,1.38-2.91c0.92-0.71,2.12-1.07,3.61-1.07c1.56,0,3,0.29,4.31,0.87l-0.63,1.69
			c-1.31-0.55-2.55-0.83-3.72-0.83c-0.95,0-1.68,0.21-2.19,0.61c-0.51,0.41-0.77,0.96-0.77,1.66c0,0.53,0.1,0.96,0.32,1.31
			c0.21,0.35,0.56,0.66,1.04,0.93c0.48,0.27,1.17,0.57,2.06,0.91c0.99,0.37,1.79,0.74,2.4,1.12c0.61,0.38,1.07,0.84,1.39,1.39
			c0.32,0.55,0.48,1.21,0.48,2C275.52,71.84,275.02,72.92,274.03,73.69"/>
		<path class="st22" d="M56.83,58.54l-0.02-0.06c-0.92-2.76-0.95-6.18,1.66-9.86c2.08-2.93,4.26-5.46,3.8-10.08
			c0-0.05-0.03-0.51,0.44-0.71c0.53-0.22,0.86,0.24,0.88,0.27c2.36,3.95,2.9,8.21,1.66,11.56c-1.64,4.44-5.26,5.67-7.12,9.07
			c-0.12,0.21-0.39,0.36-0.65,0.34C57.21,59.05,56.94,58.84,56.83,58.54"/>
		<path class="st22" d="M44.25,60.78c-7.71-2.92-14.11-13.06-5.95-23.93c7.11-9.47,12.17-14.91,10.48-21.36
			c-0.04-0.13-0.08-0.59,0.33-0.8c0.64-0.33,0.99,0.29,1.02,0.34c4.15,6.86,0.38,14.99-5.69,24.34c-3.42,5.27-5.31,13.59,0.59,20.22
			c0.31,0.35,0.29,0.71,0.1,0.97C44.98,60.79,44.68,60.95,44.25,60.78"/>
		<path class="st22" d="M21.89,66.32c1.05-0.19,4.82-0.94,12.67-3c4.92-1.29,10.5-0.39,12.79,1.96c2.05,2.1,2.78,4.67,2.93,5.07
			c0.23,0.61,0.49,2,0.49,2s0.82-2.21,1.1-2.61c0.18-0.27,1.22-0.31,2-2.38c0.58-1.54,0.02-3.7-2.77-5.66
			c-6.03-4.23-6.76-14.44-1.53-22.12c4.87-7.16,6.59-11.81,5.92-15.56c-0.01-0.06-0.07-0.57,0.37-0.79
			c0.47-0.23,0.85,0.13,0.88,0.17c6.21,8.24,1.23,16.4-1.75,20.77c-2.9,4.23-3.87,7.83-2.96,11.95c0.19,0.89,0.34,2.23,1.13,3.66
			c0.73,1.14,1.92,4.26,3.82,3.56c3.01-1.11,5.96-0.41,11,0.66c7.11,1.52,10.51,2.16,11.45,2.34c0.3,0.06,0.46,0.29,0.51,0.37
			c0.04,0.05,5.15,7.01,5.15,7.01s0.27,0.34,0.08,0.73c-0.12,0.2-0.34,0.48-0.81,0.39c-4.27-0.82-14.97-2.85-19.34-3.48
			c-5.73-0.82-11.13-0.06-13.62,2.85c-0.11,0.13-0.28,0.34-0.61,0.34c-0.34,0-0.5-0.18-0.62-0.32c-2.45-2.89-7.73-3.69-13.24-2.91
			c-4.32,0.62-15.25,2.68-19.6,3.51c-0.51,0.13-0.85-0.17-0.94-0.5c-0.09-0.33,0.15-0.64,0.15-0.64l4.92-7.12
			C21.44,66.56,21.56,66.38,21.89,66.32"/>
	</g>
</g>
<g id="Capa_3" class="st34">
</g>
<g id="Capa_6">
</g>
</svg>
